<?xml version="1.0" encoding="UTF-8"?><svg id="Layer_2" xmlns="http://www.w3.org/2000/svg" width="824.9" height="270.9" viewBox="0 0 824.9 270.9"><defs><style>.cls-1{fill:#fff;}</style></defs><g id="Layer_1-2"><g><rect class="cls-1" x="0" y="166.9" width="141.5" height="10.6"/><g><rect class="cls-1" x="194.6" width="12.1" height="69.2"/><path class="cls-1" d="m218.5,22h11v6.6c1.5-2.6,3.6-4.5,6.2-5.8,2.6-1.3,5.7-2,9.2-2s6.3.6,8.7,1.7,4.2,2.7,5.5,4.7c1.1,1.8,1.9,3.7,2.4,5.9s.7,4.9.7,8.1v28.1h-11v-24.4c0-2-.2-3.9-.5-5.7-.3-1.8-.9-3.3-1.7-4.5-.8-1.2-1.8-2.2-3.1-3-1.3-.7-3-1.1-4.9-1.1-3.9,0-6.7,1.4-8.6,4.1-1.9,2.7-2.8,6.1-2.8,10.2v24.4h-11V22h0Z"/><polygon class="cls-1" points="277.8 22 290.7 53.4 303.9 22 315.8 22 294.4 69.2 287 69.2 265.9 22 277.8 22"/><path class="cls-1" d="m327.4,48.9c.1,1.7.4,3.3.9,4.8.5,1.5,1.2,2.8,2.2,3.9,1,1.1,2.2,2,3.8,2.6,1.5.6,3.5,1,5.8,1s5.5-.6,6.9-1.8,2.5-2.7,3.1-4.4h11.1c-.3,2-1.1,4-2.2,5.8-1.1,1.9-2.6,3.5-4.4,4.9-1.8,1.4-4,2.6-6.4,3.4-2.4.8-5.2,1.3-8.2,1.3s-7.5-.6-10.4-1.9-5.4-3-7.3-5.3c-2-2.2-3.4-4.9-4.4-7.9s-1.5-6.3-1.5-9.7.5-6.8,1.6-9.8c1-3,2.5-5.7,4.5-7.9,2-2.2,4.4-4,7.3-5.2,2.9-1.2,6.2-1.9,9.9-1.9s5.9.5,8.6,1.6c2.7,1.1,5,2.6,7,4.5s3.5,4.2,4.7,6.7c1.1,2.6,1.7,5.4,1.7,8.4s0,1.8,0,2.9c0,1.1-.2,2.5-.5,4h-33.7Zm12.1-19.9c-3.4,0-6.3,1-8.6,2.9-2.3,2-3.4,4.9-3.4,8.7h23.5c0-3.7-1.1-6.5-3.2-8.6-2.1-2.1-4.9-3.1-8.3-3.1"/><path class="cls-1" d="m393.5,42.5c1.6.6,3.2,1.2,4.8,1.9,1.5.7,2.9,1.5,4.1,2.5,1.2,1,2.2,2.2,2.9,3.7.7,1.4,1.1,3.2,1.1,5.4s-.5,4.6-1.5,6.4-2.3,3.3-4,4.5-3.7,2.1-6,2.6c-2.3.6-4.7.9-7.3.9s-5-.4-7.3-1.1c-2.3-.7-4.3-1.8-6.1-3.3-1.8-1.4-3.2-3.2-4.3-5.4-1-2.1-1.6-4.6-1.6-7.3h10.7c0,3.1.9,5.3,2.6,6.5s3.9,1.9,6.5,1.9,4-.4,5.5-1.2c1.5-.8,2.2-2.2,2.2-4.3s-.3-2-.9-2.6c-.6-.7-1.5-1.3-2.7-1.9-1.2-.6-2.7-1.2-4.6-1.8-1.8-.6-4-1.4-6.5-2.3-1.6-.6-3.1-1.3-4.5-2-1.4-.7-2.6-1.5-3.6-2.5-1-1-1.8-2.1-2.3-3.5-.5-1.4-.8-3.1-.8-5.2s.5-4.2,1.4-5.9,2.2-3.1,3.9-4.3c1.6-1.2,3.5-2.1,5.6-2.6s4.4-.9,6.8-.9,4.9.4,7,1.2c2.2.8,4.1,1.9,5.7,3.3,1.6,1.4,2.9,3.1,3.9,5.1,1,2,1.4,4.1,1.4,6.4h-10.7c0-2.2-.6-4-1.8-5.3s-3.1-2-5.8-2-3.5.4-4.8,1.3-2,2.2-2,3.8.3,1.8.8,2.5,1.4,1.2,2.4,1.7c1.1.5,2.4,1,4,1.6s3.5,1.3,5.7,2.1"/><path class="cls-1" d="m441.9,69.2c-.9.1-2.1.3-3.5.4-1.5.1-3,.2-4.7.2s-2.9-.1-4.7-.3c-1.8-.2-3.4-.9-5-2-1.6-1.1-2.9-2.7-4-5-1.1-2.2-1.6-5.3-1.6-9.3v-22h-8v-9.2h8V6.8h11v15.2h10.8v9.2h-10.8v19.4c0,2,.1,3.6.5,4.8.3,1.2.8,2.1,1.4,2.8s1.3,1.1,2.2,1.3c.8.2,1.8.3,2.9.3h3c1.1,0,2,0,2.5-.3v9.7h0Z"/><path class="cls-1" d="m495.6,42.5c1.6.6,3.2,1.2,4.8,1.9,1.5.7,2.9,1.5,4.1,2.5,1.2,1,2.2,2.2,2.9,3.7.7,1.4,1.1,3.2,1.1,5.4s-.5,4.6-1.5,6.4-2.3,3.3-4,4.5-3.7,2.1-6,2.6c-2.3.6-4.7.9-7.3.9s-5-.4-7.3-1.1c-2.3-.7-4.3-1.8-6.1-3.3-1.8-1.4-3.2-3.2-4.3-5.4-1-2.1-1.6-4.6-1.6-7.3h10.7c0,3.1.9,5.3,2.6,6.5s3.9,1.9,6.5,1.9,4-.4,5.5-1.2,2.2-2.2,2.2-4.3-.3-2-.9-2.6c-.6-.7-1.5-1.3-2.7-1.9-1.2-.6-2.7-1.2-4.6-1.8-1.8-.6-4-1.4-6.5-2.3-1.6-.6-3.1-1.3-4.5-2-1.4-.7-2.6-1.5-3.6-2.5-1-1-1.8-2.1-2.3-3.5-.5-1.4-.8-3.1-.8-5.2s.5-4.2,1.4-5.9,2.2-3.1,3.9-4.3c1.6-1.2,3.5-2.1,5.6-2.6s4.4-.9,6.8-.9,4.9.4,7,1.2c2.2.8,4.1,1.9,5.7,3.3,1.6,1.4,2.9,3.1,3.9,5.1,1,2,1.4,4.1,1.4,6.4h-10.7c0-2.2-.6-4-1.8-5.3s-3.1-2-5.8-2-3.5.4-4.8,1.3c-1.3.9-2,2.2-2,3.8s.3,1.8.8,2.5,1.4,1.2,2.4,1.7c1.1.5,2.4,1,4,1.6s3.5,1.3,5.7,2.1"/><path class="cls-1" d="m539.7,42.5c1.6.6,3.2,1.2,4.8,1.9,1.5.7,2.9,1.5,4.2,2.5,1.2,1,2.2,2.2,2.9,3.7.7,1.4,1.1,3.2,1.1,5.4s-.5,4.6-1.5,6.4-2.3,3.3-4,4.5-3.7,2.1-6,2.6c-2.3.6-4.7.9-7.3.9s-5-.4-7.3-1.1c-2.3-.7-4.3-1.8-6.1-3.3-1.8-1.4-3.2-3.2-4.3-5.4-1-2.1-1.6-4.6-1.6-7.3h10.7c0,3.1.9,5.3,2.6,6.5,1.7,1.2,3.9,1.9,6.5,1.9s4-.4,5.5-1.2,2.2-2.2,2.2-4.3-.3-2-.9-2.6c-.6-.7-1.5-1.3-2.7-1.9-1.2-.6-2.7-1.2-4.6-1.8-1.8-.6-4-1.4-6.5-2.3-1.6-.6-3.1-1.3-4.5-2-1.4-.7-2.6-1.5-3.6-2.5-1-1-1.8-2.1-2.3-3.5-.5-1.4-.8-3.1-.8-5.2s.5-4.2,1.4-5.9,2.2-3.1,3.8-4.3c1.6-1.2,3.5-2.1,5.6-2.6s4.4-.9,6.8-.9,4.8.4,7,1.2c2.2.8,4.1,1.9,5.7,3.3,1.6,1.4,2.9,3.1,3.8,5.1,1,2,1.4,4.1,1.4,6.4h-10.7c0-2.2-.6-4-1.8-5.3s-3.1-2-5.8-2-3.5.4-4.8,1.3c-1.3.9-2,2.2-2,3.8s.3,1.8.8,2.5,1.3,1.2,2.4,1.7c1.1.5,2.4,1,4,1.6s3.5,1.3,5.7,2.1"/><path class="cls-1" d="m569.9,48.9c.1,1.7.4,3.3.9,4.8.5,1.5,1.2,2.8,2.2,3.9s2.2,2,3.8,2.6c1.5.6,3.5,1,5.8,1s5.5-.6,6.9-1.8c1.4-1.2,2.5-2.7,3.1-4.4h11.2c-.3,2-1.1,4-2.2,5.8-1.1,1.9-2.6,3.5-4.4,4.9-1.8,1.4-4,2.6-6.4,3.4-2.4.8-5.2,1.3-8.2,1.3s-7.5-.6-10.4-1.9c-2.9-1.3-5.4-3-7.3-5.3-2-2.2-3.4-4.9-4.4-7.9s-1.5-6.3-1.5-9.7.5-6.8,1.6-9.8,2.5-5.7,4.5-7.9,4.4-4,7.3-5.2c2.9-1.2,6.2-1.9,9.9-1.9s5.9.5,8.6,1.6,5,2.6,7,4.5,3.5,4.2,4.7,6.7,1.7,5.4,1.7,8.4,0,1.8,0,2.9c0,1.1-.2,2.5-.5,4h-33.7,0Zm12.1-19.9c-3.5,0-6.3,1-8.6,2.9-2.3,2-3.5,4.9-3.5,8.7h23.5c0-3.7-1.1-6.5-3.2-8.6-2.1-2.1-4.9-3.1-8.3-3.1"/><path class="cls-1" d="m672,69.2v-26.4c0-3.8-.7-6.8-2.1-9-1.4-2.2-3.6-3.3-6.7-3.3s-2.7.2-3.9.7c-1.2.5-2.2,1.3-3.1,2.4-.9,1.2-1.6,2.7-2.1,4.5s-.8,4.2-.8,7v24h-11v-26.5c0-3.8-.7-6.8-2-8.9-1.3-2.2-3.5-3.2-6.6-3.2s-2.7.2-4,.7-2.3,1.3-3.2,2.4c-.9,1.2-1.6,2.7-2.2,4.5-.5,1.9-.8,4.2-.8,7v24h-11V22h11v6.6c1-2.2,2.7-4,5-5.5,2.3-1.5,5-2.3,8.2-2.3s7.6.8,9.9,2.4,4,3.6,5,6c1.2-2.4,3-4.4,5.6-6,2.6-1.6,5.5-2.4,8.9-2.4s6.4.6,8.6,1.7,4,2.5,5.2,4.3,2.1,3.7,2.5,5.9.7,4.4.7,6.6v29.9h-11,0Z"/><path class="cls-1" d="m701.2,48.9c.1,1.7.4,3.3.9,4.8.5,1.5,1.2,2.8,2.2,3.9s2.2,2,3.8,2.6c1.5.6,3.5,1,5.8,1s5.5-.6,6.9-1.8c1.4-1.2,2.5-2.7,3.1-4.4h11.1c-.3,2-1.1,4-2.2,5.8-1.1,1.9-2.6,3.5-4.4,4.9-1.8,1.4-4,2.6-6.4,3.4-2.4.8-5.2,1.3-8.2,1.3s-7.5-.6-10.4-1.9c-2.9-1.3-5.4-3-7.3-5.3-2-2.2-3.4-4.9-4.4-7.9s-1.5-6.3-1.5-9.7.5-6.8,1.6-9.8,2.5-5.7,4.5-7.9,4.4-4,7.3-5.2c2.9-1.2,6.2-1.9,9.9-1.9s5.9.5,8.6,1.6,5,2.6,7,4.5,3.5,4.2,4.7,6.7,1.7,5.4,1.7,8.4,0,1.8,0,2.9c0,1.1-.2,2.5-.5,4h-33.7,0Zm12.1-19.9c-3.5,0-6.3,1-8.6,2.9-2.3,2-3.5,4.9-3.5,8.7h23.5c0-3.7-1.1-6.5-3.2-8.6-2.1-2.1-4.9-3.1-8.3-3.1"/><path class="cls-1" d="m743.3,22h11v6.6c1.5-2.6,3.5-4.5,6.2-5.8s5.7-2,9.2-2,6.3.6,8.7,1.7c2.3,1.1,4.2,2.7,5.5,4.7,1.2,1.8,1.9,3.7,2.4,5.9s.7,4.9.7,8.1v28.1h-11v-24.4c0-2-.2-3.9-.5-5.7-.3-1.8-.9-3.3-1.7-4.5-.8-1.2-1.8-2.2-3.1-3-1.3-.7-3-1.1-4.9-1.1-3.8,0-6.7,1.4-8.6,4.1-1.9,2.7-2.8,6.1-2.8,10.2v24.4h-11V22Z"/><path class="cls-1" d="m824.9,69.2c-.9.1-2.1.3-3.5.4-1.5.1-3,.2-4.7.2s-2.9-.1-4.7-.3c-1.8-.2-3.4-.9-5-2-1.6-1.1-2.9-2.7-4-5-1.1-2.2-1.6-5.3-1.6-9.3v-22h-8v-9.2h8V6.8h11v15.2h10.8v9.2h-10.8v19.4c0,2,.2,3.6.5,4.8.3,1.2.8,2.1,1.4,2.8s1.3,1.1,2.2,1.3c.8.2,1.8.3,2.9.3h3c1.2,0,2,0,2.5-.3v9.7h0Z"/><path class="cls-1" d="m315.3,111.7v47.2h-11v-6.6c-1.5,2.6-3.5,4.5-6.2,5.8s-5.7,2-9.2,2-6.3-.6-8.7-1.7c-2.3-1.1-4.2-2.7-5.5-4.7-1.1-1.8-1.9-3.7-2.4-5.9-.4-2.2-.7-4.9-.7-8.1v-28.1h11v24.4c0,2,.2,3.9.5,5.7.3,1.8.9,3.3,1.7,4.5.8,1.2,1.8,2.2,3.1,3s3,1.1,4.9,1.1c3.9,0,6.7-1.4,8.6-4.1,1.9-2.7,2.8-6.1,2.8-10.2v-24.4h11,0Z"/><path class="cls-1" d="m334.2,138.6c.1,1.7.4,3.3.9,4.8.5,1.5,1.2,2.8,2.2,3.9,1,1.1,2.2,2,3.8,2.6,1.5.6,3.5,1,5.8,1s5.5-.6,6.9-1.8,2.5-2.7,3.1-4.4h11.1c-.3,2-1.1,4-2.2,5.8-1.1,1.9-2.6,3.5-4.4,4.9-1.8,1.4-4,2.6-6.4,3.4-2.4.8-5.2,1.3-8.2,1.3s-7.5-.6-10.4-1.9-5.4-3-7.4-5.3c-2-2.2-3.4-4.9-4.4-7.9s-1.5-6.3-1.5-9.7.5-6.8,1.6-9.8c1-3,2.5-5.7,4.5-7.9,2-2.2,4.4-4,7.3-5.2,2.9-1.2,6.2-1.9,9.9-1.9s5.9.5,8.6,1.6c2.7,1.1,5,2.6,7,4.5s3.5,4.2,4.7,6.7c1.1,2.6,1.7,5.4,1.7,8.4s0,1.8,0,2.9c0,1.1-.2,2.4-.5,4h-33.7,0Zm12.1-19.9c-3.4,0-6.3,1-8.6,2.9-2.3,2-3.4,4.9-3.4,8.7h23.5c0-3.7-1.1-6.5-3.2-8.6s-4.9-3.1-8.3-3.1"/><path class="cls-1" d="m387.6,158.9h-11v-70.9h11v30.1c1.5-2.4,3.6-4.2,6.3-5.6,2.7-1.3,5.5-2,8.3-2s6.9.7,9.8,2c3,1.3,5.5,3.1,7.6,5.4,2.1,2.3,3.8,4.9,5,7.9,1.2,3,1.8,6.2,1.8,9.5s-.6,6.6-1.8,9.5-2.8,5.6-5,7.9c-2.1,2.3-4.7,4.1-7.6,5.4-3,1.3-6.2,2-9.8,2s-5.5-.7-8.3-2c-2.7-1.4-4.9-3.2-6.3-5.6v6.4h0Zm14-8.6c2.1,0,4-.4,5.7-1.2s3.1-1.9,4.4-3.2c1.2-1.4,2.1-2.9,2.8-4.8.6-1.8,1-3.8,1-5.8s-.3-3.9-1-5.8c-.6-1.8-1.6-3.4-2.8-4.8s-2.7-2.4-4.4-3.2c-1.7-.8-3.6-1.2-5.7-1.2s-4.1.4-5.8,1.2c-1.7.8-3.2,1.9-4.4,3.2s-2.1,2.9-2.8,4.8c-.6,1.8-1,3.8-1,5.8s.3,3.9,1,5.8c.6,1.8,1.6,3.4,2.8,4.8,1.2,1.4,2.7,2.4,4.4,3.2,1.7.8,3.7,1.2,5.8,1.2"/><path class="cls-1" d="m443.5,138.6c.1,1.7.4,3.3.9,4.8.5,1.5,1.2,2.8,2.2,3.9,1,1.1,2.2,2,3.8,2.6,1.5.6,3.5,1,5.8,1s5.5-.6,6.9-1.8,2.5-2.7,3.1-4.4h11.1c-.3,2-1.1,4-2.2,5.8s-2.6,3.5-4.4,4.9c-1.8,1.4-4,2.6-6.4,3.4-2.4.8-5.2,1.3-8.2,1.3s-7.5-.6-10.4-1.9c-2.9-1.3-5.4-3-7.4-5.3-2-2.2-3.4-4.9-4.4-7.9s-1.5-6.3-1.5-9.7.5-6.8,1.6-9.8c1-3,2.5-5.7,4.5-7.9,2-2.2,4.4-4,7.3-5.2s6.2-1.9,9.9-1.9,5.9.5,8.6,1.6c2.7,1.1,5,2.6,7,4.5s3.5,4.2,4.7,6.7c1.1,2.6,1.7,5.4,1.7,8.4s0,1.8,0,2.9c0,1.1-.2,2.4-.5,4h-33.7,0Zm12.1-19.9c-3.5,0-6.3,1-8.6,2.9-2.3,2-3.5,4.9-3.5,8.7h23.5c0-3.7-1.1-6.5-3.2-8.6s-4.9-3.1-8.3-3.1"/><path class="cls-1" d="m519.6,128.9c-.3-2.6-1.3-4.6-3-6.2-1.7-1.6-4.4-2.4-8.2-2.4s-4,.4-5.6,1.2-2.9,1.9-4,3.3c-1.1,1.4-1.9,3-2.4,4.8-.5,1.8-.8,3.7-.8,5.7s.2,3.9.8,5.8c.5,1.8,1.3,3.4,2.4,4.8,1.1,1.4,2.5,2.4,4.1,3.2,1.7.8,3.7,1.2,6.1,1.2s5.6-.7,7.1-2c1.5-1.4,2.7-3.2,3.4-5.6h11c-.4,2.4-1.2,4.7-2.2,6.8-1.1,2.1-2.5,4-4.4,5.6-1.9,1.6-4.1,2.8-6.7,3.7-2.6.9-5.6,1.3-9.1,1.3s-7.2-.7-10.2-2.1c-2.9-1.4-5.4-3.2-7.4-5.5s-3.5-4.9-4.5-7.9-1.5-6.1-1.5-9.3.5-6.3,1.5-9.3c1-3,2.5-5.7,4.5-7.9,2-2.3,4.4-4.1,7.4-5.5,2.9-1.4,6.3-2.1,10.1-2.1s7.1.5,9.9,1.6,5,2.5,6.8,4.2c1.8,1.7,3.1,3.7,4,5.9s1.5,4.4,1.7,6.7h-11,0Z"/><path class="cls-1" d="m263.7,123.5c0,20.8-17,37.2-37.5,37.2-20.5,0-37.5-16.4-37.5-37.2,0-20.8,17-37.2,37.5-37.2,20.5,0,37.5,16.4,37.5,37.2m-62.9,0c0,14.2,11.3,25.5,25.4,25.5s25.5-11.4,25.5-25.5-11.4-25.5-25.5-25.5-25.4,11.4-25.4,25.5"/><rect class="cls-1" x="450.8" y="22" width="11" height="47.2"/><rect class="cls-1" x="450.8" y="6.8" width="11" height="9"/><rect class="cls-1" x="226.2" y="166.9" width="34.8" height="10.6"/><polygon class="cls-1" points="346.5 93.4 359.8 93.4 352 104.3 339.9 104.3 346.5 93.4"/></g><path class="cls-1" d="m141.5,0c0,37.5-15,73.2-41.7,99.5-26.5,26.1-62.3,40.8-99.8,40.8v-38.3c27.1,0,53.2-10.8,72.3-29.9C91.3,53.2,102,26.7,102,0h39.5Z"/><g><path class="cls-1" d="m203.5,259.6c-3.5-2-6.2-4.8-8.1-8.3-1.9-3.6-2.8-7.6-2.8-12.2s.9-8.6,2.8-12.2,4.6-6.3,8.1-8.3c3.5-2,7.6-3,12.4-3s7.6.7,10.7,2.1c3.1,1.4,5.6,3.4,7.5,5.8,1.9,2.5,3.1,5.3,3.5,8.5h-8.1c-.7-3.1-2.2-5.5-4.6-7.2s-5.3-2.6-9-2.6-8.7,1.5-11.5,4.6-4.1,7.2-4.1,12.3,1.4,9.3,4.1,12.3,6.6,4.6,11.5,4.6,6.7-.9,9-2.6c2.3-1.8,3.9-4.2,4.6-7.2h8.1c-.5,3.2-1.6,6-3.5,8.5-1.9,2.5-4.4,4.4-7.5,5.8-3.1,1.4-6.7,2.1-10.7,2.1s-8.9-1-12.4-3h0Z"/><path class="cls-1" d="m277.1,241.4c-1.7,2.6-4,4.5-6.9,5.6l8.8,14.5h-8.4l-8.2-13.4h-7.2v13.4h-7.4v-44.8h16.5c2.9,0,5.6.7,7.9,2,2.3,1.3,4.1,3.2,5.5,5.6,1.3,2.4,2,5.1,2,8.1s-.9,6.5-2.6,9.1h0Zm-21.9,0h8.7c2.4,0,4.5-.9,6-2.6s2.4-3.9,2.4-6.5-.8-4.8-2.4-6.5-3.6-2.6-6-2.6h-8.7v18.2h0Z"/><path class="cls-1" d="m289.9,216.7h7.4v44.8h-7.4v-44.8h0Z"/><path class="cls-1" d="m349.9,252.9c-2.7,4-6.4,6.8-11,8.4l4.8,6.3-6.5,3.3-6.3-8.3h-.1c-4.7,0-8.8-1-12.3-3.1-3.5-2.1-6.2-4.9-8.1-8.5-1.9-3.6-2.8-7.5-2.8-11.8s.9-8.3,2.8-11.8,4.6-6.4,8.1-8.5,7.6-3.1,12.3-3.1,8.8,1.1,12.3,3.1,6.2,4.9,8.1,8.5c1.9,3.6,2.8,7.5,2.8,11.8s-1.3,9.8-4,13.8Zm-10.9.9c2.4-1.5,4.1-3.5,5.3-6.1,1.2-2.6,1.8-5.4,1.8-8.5,0-3.1-.5-6-1.8-8.5-1.2-2.6-3-4.6-5.3-6.1-2.4-1.5-5.1-2.2-8.3-2.2s-6,.8-8.3,2.2-4.1,3.5-5.3,6.1c-1.2,2.6-1.8,5.4-1.8,8.5,0,3.1.5,6,1.8,8.5,1.2,2.6,3,4.6,5.3,6.1,2.4,1.5,5.1,2.2,8.3,2.2s6-.8,8.3-2.2Z"/></g></g></g></svg>